<svg width="128" height="112" viewBox="0 0 128 112" fill="none" xmlns="http://www.w3.org/2000/svg">
<rect y="104" width="128" height="8" fill="#2B2D35"/>
<rect x="8" y="88" width="112" height="16" fill="#2B2D35"/>
<rect y="56" width="8" height="40" fill="#2B2D35"/>
<rect x="8" y="72" width="8" height="8" fill="#2B2D35"/>
<rect x="120" y="96" width="8" height="8" fill="#2B2D35"/>
<rect x="16" y="80" width="112" height="8" fill="#2B2D35"/>
<rect x="24" y="72" width="32" height="8" fill="#2B2D35"/>
<rect x="16" y="32" width="8" height="40" fill="#2B2D35"/>
<rect x="24" y="48" width="8" height="24" fill="#2B2D35"/>
<rect x="8" y="24" width="8" height="8" fill="#2B2D35"/>
<rect x="24" y="16" width="8" height="8" fill="#2B2D35"/>
<rect x="32" y="24" width="8" height="16" fill="#2B2D35"/>
<rect x="40" y="8" width="8" height="64" fill="#2B2D35"/>
<rect x="32" width="8" height="8" fill="#2B2D35"/>
<rect x="48" y="40" width="8" height="16" fill="#2B2D35"/>
<rect x="48" y="65" width="8" height="8" fill="#2B2D35"/>
<rect x="56" y="49" width="8" height="16" fill="#2B2D35"/>
<rect x="64" y="32" width="8" height="48" fill="#2B2D35"/>
<rect x="56" width="8" height="40" fill="#2B2D35"/>
<rect x="72" y="16" width="8" height="40" fill="#2B2D35"/>
<rect x="80" width="8" height="24" fill="#2B2D35"/>
<rect x="72" y="65" width="16" height="15" fill="#2B2D35"/>
<rect x="80" y="49" width="8" height="16" fill="#2B2D35"/>
<rect x="88" y="24" width="8" height="40" fill="#2B2D35"/>
<rect x="96" y="56" width="8" height="24" fill="#2B2D35"/>
<rect x="104" y="72" width="8" height="8" fill="#2B2D35"/>
<rect x="96" y="8" width="8" height="16" fill="#2B2D35"/>
<rect x="104" width="8" height="8" fill="#2B2D35"/>
<rect x="104" y="32" width="8" height="24" fill="#2B2D35"/>
<rect x="112" y="24" width="8" height="8" fill="#2B2D35"/>
<rect x="112" y="56" width="8" height="16" fill="#2B2D35"/>
<rect x="120" y="64" width="8" height="16" fill="#2B2D35"/>
</svg>
