<svg version="1.2" xmlns="http://www.w3.org/2000/svg" viewBox="0 0 800 400" width="800" height="400"><style>.s0{fill:#ffffff}</style><path class="s0" d="m99.2 160.8l7.1-30.9l6.6-4l-4.7-4.2l13.8-60.6l12-6l17.8 61.2l25.2-59.7l10.2 3.1l19.7 94.1l-21.2 12.9l-8-72.7l-20.7 42.1l-10.8 2l-14.4-45l-2.6 0.2l-7.5 76.3z" /><path class="s0" d="m214.1 159.8l3.5-64.2l13.6-6.9l6 79.6z" /><path class="s0" d="m222 57.9l6.7-2.2l4.8 20.4l-1.7 0.9l-4.2-4l-3.1 8l-6.4 3.5z" /><path class="s0" d="m252.5 83.2l-7.3-11.4l9.9-14.8l48.8 73.5l-1.1-52.8l11.2 1.2l4.8 79l-16.1 4.9l-6.4-10.1l2.6-8.1l-7.6 0.2l-28.6-45.4l2.1 62.1l-15.2 5.5z" /><path class="s0" d="m328.8 79.2l6.2-6.5l-32.2-6.4v-11.6l68.9 3.4v22l-31.4-6.3l3.8 20.3h20.5v12.7l-17.6 3.1l4.9 26.9l21.6-5.8l5.1 22.4l-43.6 14.1z" /><path class="s0" d="m387.5 112.7l4-5.6l-4.9-2l-5.4-44.7h39.2l-0.6 18.4l-26.2-2.7l11.4 59.3l18.8-4.8l5 19.6l-35.1 14.3z" /><path fill-rule="evenodd" class="s0" d="m466.5 123.1l-11.4 2.8l6.1 33.9l-18.6 4.9l-6.7-88.5l-6.8-0.7v-10.8l6.9-2.7l-6.9-3.9v-2l58.1 4.2v57.8l-6.8 1.6l9.1 12.9l-1.2 5.3h5l12.1 16.9l-16.2 12.4zm-13-6.3l23.7-8.1v-28.2l-30.8-3.2z" /><path fill-rule="evenodd" class="s0" d="m557.6 127.8h-26.5l-8.6 35.3l-15.7-22.6l18.5-56.1l10.4-5.5l-25.7-3.4l-3.1-17.3l46.8-1.4l26.9 71.2l-4 8l6.8-0.7l6.2 16.4l-21.8 15.3zm-15.1-46.9l-9.2 37.9l21.2-2.8l-9.3-35.9l-2.2-0.3z" /><path class="s0" d="m599.9 157.7l-6.5-82.3l-18-4l-1.2-13.9l38.6 1.6l2.5 5.3l4.4-5l20.8 0.9l-4.4 24.8l-28.7-6.5l3.8 24.8h18.1v8.2l-16.1 4.4l7.9 51z" /><path class="s0" d="m666 161l0.9-85.4l-21.1 1.4l3.4-20.2h48.7l2.7 17.3l-21.1 1.1l3.1 38.3l-3.7 5.4l4.5 2.6l3.9 48.8z" /><path class="s0" d="m448.5 337.6l1.6-55.7h-42.7l3.7 50.8l-26.8 9.2l2.3-51.3l11-8.7h-22.3v-15l12.4-1.8l2.5-56.1l11.4-7.1l4.4 60.6l44.8-6.5l1.7-57.8l10.8 6.8l8.1 105.9l-3.9 3.8l4.5 3.4l1.9 24.9z" /><path class="s0" d="m587.9 280.7l8.7-8.3l-8.3-3.7l1.3-35.9l-9.4-14.8l12.6-18.8l63.6 96l0.6-83.7l13.9 7.9l0.8 18.1l-4.4 4.5l4.7 3l3.4 85l-20.6 6.2l-52.5-83.2l2.8 81.7l-19.2 7z" /><path class="s0" d="m707.6 333.8l1-105.3l7.1-6.3l-34.3 2l4.4-25.7h62.9l3.5 22.1l-27.5 1.4l6.9 82.1l-5.2 4.9l5.9 4.5l2.5 32.1z" /><path class="s0" d="m483.1 236.4l5.4-5.6l-6.4-4.4l-1.3-13.9l21-9.9l10.3 108.9l31.1-12.6l4.6-98.4l20 6.8l-3.6 118.5l-70.7 15.8z" /><path class="s0" d="m64.3 316.4l9.6-8.1l-11.1-1.1l-15.1-93.6l19.3-15.1l11.8 86.1l25.3-55.4l9.8-0.9l20.3 50.1l3.9-0.6l6.8-82.5l10.4 8.5l-0.2 13.5l6.4-8.3l2.2 1.8l-8.6 121.2l-27.9-7.8l-18.6-66.8l-21.5 79.1l-18 9.4z" /><path class="s0" d="m175.5 330l4.5-80.6l17.2-8.6l0.8 10.7l-8.8 8.5l9.6 1.6l6.1 79z" /><path class="s0" d="m185.8 201.7l8.2-2.6l6.1 25.1l-19.3 10.3z" /><path class="s0" d="m221.7 332.9l11.9-10.7l-11.9-0.9v-117.8l11.8-7.7l8.8 111.4l26.9-4.3l3.1 17.8l-50.6 25.7z" /><path fill-rule="evenodd" class="s0" d="m279.3 236.5l9.7-5.9l-35.4-7.9v-27.2l80.9 15.4l9.1 106.1l-12.4 6.2l-6.4-5.1l0.3 8.1l-39 19.3zm21.7 73.9l25.8-5.7l-5.9-67.7l-27.9-5.7z" /></svg>