<svg version="1.2" xmlns="http://www.w3.org/2000/svg" viewBox="0 0 520 520" width="520" height="520"><style>.s0{fill:#ffffff}.s1{fill:#ce281c}.s2{fill:#2c2e35}</style><path class="s0" d="m50.3 295.6l-25.5-77.6l85.7 0.9l34.7 29.3l-33.7-158.3l43.2 54.1l-8.8-97.6l64.9 86.3l42.9-104.9l36.5 101.5l63.2-107.6l-10.1 111.6l39.2-59.3l-14.2 181.5l40.1-33.5l85.6 0.9l-27.1 80l-104.2 56.8l3 42.5l-10.8 22.4l11.6 8.7l5.8-7.2l48.3 72.9l-80.2-15l5.4-10.8l-18.4-12.4l-23.2 31.9l-21.7-30.4l-17.4 23.2l-10.2-29l-10.1 23.2l-16-21.8l-23.1 20.3l-17.4-18.8l-23.8 15.1l5 8.5l-76.7 11.4l46.8-65.5l5.2 7.3l15.9-13l-10-17.2l1.7-48.2z" /><path class="s1" d="m122.5 469.7l4.5-0.8l-0.6-4.7l11.6-16.2l15.2 28.5l-40 6.2z" /><path class="s1" d="m175.3 453.6l-8.5-18.4l11.8-8.5l-13.5-19.7l39.9 11.3l-3 42.6l-12.1-17.7z" /><path class="s1" d="m167.8 458.2l-10 6.2l-10.4-15.2l12.1-8.7z" /><path class="s1" d="m396.8 482.7l-40-7.9l15.2-28.5z" /><path class="s1" d="m350.4 438.8l12.2 8.7l-10.4 15.2l-10-6.2z" /><path class="s1" d="m347.1 411.1l-11.9 16.6l8 5.8l-8.6 18.3l-11.6-7.1l-13.9 19.5l-0.4-0.3l2.6-45.5z" /><path class="s1" d="m357.5 279.5l54.3-44.7l65.4 0.7l-9.3 25.3l-7.8 2.5l4.6 6.3l-8.6 23.6l-93.5 50.9l-2.1-26.3l37-25l44.1-32.9l-47.5 28.2l-34.1 22.4z" /><path fill-rule="evenodd" class="s2" d="m216.7 456.4l2.6-46.6l-53-15.7l0.1-18.2l6.7-6.1l-6.6-3.7l0.5-98l52.4-0.1l34.4 54.1l31-54.2l34.6-0.1l4.6 7.5l5.2-7.5l14.2-0.1l9.7 131.2l-54.5 11.1l-3 53.7l-13.8-19.8l-15.1 17.4l-11.1-28.4l-14.1 25.5l-11.8-15.8zm56.7-115.6l6.7 18.6l47.6-13l-9-41.6zm-22.8 12.6l-13 34.1l10.8 5.4l6.9-10.7l4.1 11.3l11.5-7.3l-10.9-32.2zm-19.9 5.9l9.4-18.6l-40.3-37l-7.9 40.6z" /><path class="s1" d="m158.9 254.1l-25.9-119.2l79.8 118.2l-27.1 0.5l-3.4-5.9l-5.8 6.1z" /><path class="s1" d="m287.5 254.2l79.6-131.8l-6.2 59.7l-8.1 6.8l6.9 5.6l-6.1 59.1z" /><path class="s1" d="m167.9 154.9l-6.9-66.4l42.8 60.8l-15.6 32.8z" /><path class="s1" d="m308.4 179.9l-10.7-30l38.8-71l-9.2 69.6z" /><path class="s1" d="m61.3 288.9l-19.9-58.1l37.5 0.4l4.3 8.4l2.9-8.3l20.7 0.2l45.9 39.5l-0.2 34.2l-29.1-20l-46.9-29.2l43.4 33.9l32.5 22.9l-0.2 28.3z" /><path fill-rule="evenodd" class="s1" d="m236.4 110.2l6.9-1.9l-2.2-9.7l12-30.1l45.4 127.7l-12.8 26.3l-5.5-0.2l1.5 8.5l-29.5 60.9l-52.5-89.9zm-4.8 91.2l17.8 33.4l16.8-35.3l-16.8-37.4z" /></svg>