<svg width="48" height="48" viewBox="0 0 48 48" fill="none" xmlns="http://www.w3.org/2000/svg">
<path d="M0 0H48V48H0V0Z" fill="#7A4E33"/>
<path d="M12 42H36V48H12V42Z" fill="#41210C"/>
<path d="M12 36H18V42H12V36Z" fill="#41210C"/>
<path d="M30 36H36V42H30V36Z" fill="#41210C"/>
<path d="M6 24H12V30H6V24Z" fill="white"/>
<path d="M36 24H42V30H36V24Z" fill="white"/>
<path d="M30 24H36V30H30V24Z" fill="#523D8A"/>
<path d="M30 30H36V36H30V30Z" fill="#BE886C"/>
<path d="M36 30H42V36H36V30Z" fill="#A26A47"/>
<path d="M42 30H48V36H42V30Z" fill="#805334"/>
<path d="M42 24H48V30H42V24Z" fill="#AA7D66"/>
<path d="M42 36H48V42H42V36Z" fill="#815339"/>
<path d="M42 42H48V48H42V42Z" fill="#7A4E33"/>
<path d="M36 42H42V48H36V42Z" fill="#83553B"/>
<path d="M36 36H42V42H36V36Z" fill="#8F5E3D"/>
<path d="M18 30H30V36H18V30Z" fill="#6B4030"/>
<path d="M18 36H30V42H18V36Z" fill="#8A4C3D"/>
<path d="M12 24H18V30H12V24Z" fill="#523D8A"/>
<path d="M12 30H18V36H12V30Z" fill="#B78272"/>
<path d="M6 30H12V36H6V30Z" fill="#B37B62"/>
<path d="M6 36H12V42H6V36Z" fill="#965F40"/>
<path d="M6 42H12V48H6V42Z" fill="#6D432A"/>
<path d="M0 42H6V48H0V42Z" fill="#70452B"/>
<path d="M0 36H6V42H0V36Z" fill="#8E5F45"/>
<path d="M0 30H6V36H0V30Z" fill="#9B6445"/>
<path d="M0 24H6V30H0V24Z" fill="#B3846D"/>
<path d="M0 18H6V24H0V18Z" fill="#AA7C67"/>
<path d="M6 18H12V24H6V18Z" fill="#B4846D"/>
<path d="M6 12H12V18H6V12Z" fill="#B6896C"/>
<path d="M0 12H6V18H0V12Z" fill="#2C1E0B"/>
<path d="M0 6H6V12H0V6Z" fill="#2B1E0D"/>
<path d="M0 0H6V6H0V0Z" fill="#311F0B"/>
<path d="M6 0H12V6H6V0Z" fill="#2B1E0C"/>
<path d="M6 6H12V12H6V6Z" fill="#2B1E0D"/>
<path d="M12 6H18V12H12V6Z" fill="#2B1E0D"/>
<path d="M12 0H18V6H12V0Z" fill="#2E1F0F"/>
<path d="M18 0H24V6H18V0Z" fill="#281C0C"/>
<path d="M18 6H24V12H18V6Z" fill="#332411"/>
<path d="M24 6H30V12H24V6Z" fill="#422A12"/>
<path d="M24 0H30V6H24V0Z" fill="#241807"/>
<path d="M30 0H36V6H30V0Z" fill="#261A0B"/>
<path d="M30 6H36V12H30V6Z" fill="#3F2A15"/>
<path d="M36 6H42V12H36V6Z" fill="#2B1E0E"/>
<path d="M36 0H42V6H36V0Z" fill="#2A1E0D"/>
<path d="M42 0H48V6H42V0Z" fill="#2A1D0D"/>
<path d="M42 6H48V12H42V6Z" fill="#281C0C"/>
<path d="M42 12H48V18H42V12Z" fill="#342512"/>
<path d="M12 12H18V18H12V12Z" fill="#BD8E72"/>
<path d="M18 12H24V18H18V12Z" fill="#C69680"/>
<path d="M24 12H30V18H24V12Z" fill="#BD8B72"/>
<path d="M30 12H36V18H30V12Z" fill="#BD8E74"/>
<path d="M36 12H42V18H36V12Z" fill="#AC765A"/>
<path d="M12 18H18V24H12V18Z" fill="#AA7D66"/>
<path d="M18 18H24V24H18V18Z" fill="#AD806D"/>
<path d="M24 18H30V24H24V18Z" fill="#9C725C"/>
<path d="M30 18H36V24H30V18Z" fill="#BB8972"/>
<path d="M36 18H48V24H36V18Z" fill="#9C694C"/>
<path d="M18 24H24V30H18V24Z" fill="#B57B67"/>
<path d="M24 24H30V30H24V24Z" fill="#BB8972"/>
</svg>
